<?xml version="1.0" encoding="utf-8"?>
<!-- Generator: Adobe Illustrator 21.1.0, SVG Export Plug-In . SVG Version: 6.00 Build 0)  -->
<svg version="1.1" id="icons" xmlns="http://www.w3.org/2000/svg" xmlns:xlink="http://www.w3.org/1999/xlink" x="0px" y="0px"
	 viewBox="0 0 300 300" style="enable-background:new 0 0 300 300;" xml:space="preserve">
<path id="arrow-left" d="M55,153.8c0.2-0.2,0.3-0.4,0.5-0.6c18.8-19.5,11.4-11.9,30.2-31.4c1-1.4,1.3-3,0.8-4.8
	c-0.5-2.3-2-3.9-4.3-4.5c-2.5-0.7-4.7,0.1-6.5,2c-21.1,21.9-16.1,16.8-37.2,38.7c-0.2,0.2-0.3,0.4-0.5,0.6c0.2,0.3,0.4,0.5,0.6,0.7
	c20.8,21.7,18.4,18.3,39.2,40c1.3,1.4,2.7,2.6,4.7,2.9c0.4,0,0.8,0,1.3-0.2c0.1-0.1,0.3-0.2,0.5-0.2c2.4-0.6,4.1-2.1,4.9-4.5
	c0.5-1.5,0.4-2.8-0.2-4c-18.9-19.7-14.6-14.3-33.4-34C55.4,154.3,55.2,154.1,55,153.8z M61.7,147.3c-1.9,1.6-3.9,3.5-6.2,5.9
	c-0.2,0.2-0.3,0.4-0.5,0.6c0.2,0.3,0.4,0.5,0.6,0.7c1.7,1.7,3.3,3.4,5,5.2h133.8c2.6-0.5,4.4-2.7,4.6-5.5c0.2-3.5-1.7-6.1-4.9-6.7
	c-0.8-0.1-1.6-0.1-2.4-0.1H78.2c0,0,0,0,0-0.1L61.7,147.3L61.7,147.3z"/>
<path id="arrow-right" d="M214.1,153.8c-0.2,0.2-0.3,0.4-0.5,0.6c-18.8,19.5-11.8,12.8-30.6,32.3c-1,1.4-1.3,3-0.8,4.8
	c0.5,2.3,2,3.9,4.3,4.5c2.5,0.7,4.7-0.1,6.5-2c21.1-21.9,16.5-17.7,37.6-39.6c0.2-0.2,0.3-0.4,0.5-0.6c-0.2-0.3-0.4-0.5-0.6-0.7
	c-20.8-21.7-16-16.4-36.8-38.1c-1.3-1.4-2.7-2.6-4.7-2.9c-0.4,0-0.8,0-1.3,0.2c-0.1,0.1-0.3,0.2-0.5,0.2c-2.4,0.6-4.1,2.1-4.9,4.5
	c-0.5,1.5-0.4,2.8,0.2,4c18.9,19.7,12.2,12.4,31,32.1C213.7,153.3,213.9,153.5,214.1,153.8z M207.4,160.3c1.9-1.6,3.9-3.5,6.2-5.9
	c0.2-0.2,0.3-0.4,0.5-0.6c-0.2-0.3-0.4-0.5-0.6-0.7c-1.7-1.7-3.3-3.4-5-5.2H59.3c-2.6,0.5-4.4,2.7-4.6,5.5c-0.2,3.5,1.7,6.1,4.9,6.7
	c0.8,0.1,1.6,0.1,2.4,0.1h128.9c0,0,0,0,0,0.1L207.4,160.3L207.4,160.3z"/>
<path id="zoom" d="M205.9,84.4c0,17.2,0,34.4,0,51.8c-6.6-6.7-12.9-13.1-19.1-19.4c-7,7-13.4,13.5-19.5,19.7
	c-4.7-4.7-8.6-8.7-12.7-12.7c5.9-5.8,12.4-12.3,19.2-19.1c-7.1-7.1-13.7-13.7-20.4-20.4C170.9,84.4,188.4,84.4,205.9,84.4z
	 M65.9,84.4c0,17.2,0,34.5,0,51.7c0.4,0.2,0.7,0.3,1.1,0.5c6.3-6.4,12.7-12.9,19.4-19.7c6.5,6.5,12.9,13,18.9,19.1
	c4.1-4.2,8.1-8.2,12.7-12.8c-6.3-6-12.8-12.4-19.5-18.8c6.7-6.7,13.3-13.3,19.9-19.9C100.9,84.4,83.4,84.4,65.9,84.4z M118.1,184.2
	c-4.1-4.1-8-8-12.5-12.6c-6.6,6.7-13.1,13.4-20.3,20.7c-6.5-6.6-12.8-13.1-19.2-19.6c0,17.1,0,34.2,0,51.3c17.3,0,34.4,0,52.3,0
	c-6.9-6.8-13.3-13.1-20.2-20C105,197.3,111.6,190.7,118.1,184.2z M153.9,224.1c17.5,0,34.7,0,51.7,0c0-17.3,0-34.4,0-52.2
	c-6.9,6.9-13.2,13.4-19.8,20c-6.8-6.8-13.3-13.4-19.6-19.7c-4.4,4.3-8.4,8.2-12.6,12.4c6.4,6.4,13,12.9,20.1,19.9
	C167,211.2,160.6,217.6,153.9,224.1z"/>
<path id="menu-old" d="M76.8,106H223v16.5H76.8V106z M76.8,154.5H223V138H76.8V154.5z M76.8,186.4H223v-16.5H76.8V186.4z"/>
<path id="menu" d="M101,157c0,14.4-11.6,26-26,26s-26-11.6-26-26s11.6-26,26-26S101,142.6,101,157z M150,131c-14.4,0-26,11.6-26,26
	s11.6,26,26,26s26-11.6,26-26S164.4,131,150,131z M224,131c-14.4,0-26,11.6-26,26s11.6,26,26,26s26-11.6,26-26S238.4,131,224,131z"
	/>
<g id="research">
	<path d="M242.8,139.8c0,32-37.9,57.9-84.6,57.9c-4.6,0-9.3-0.3-13.7-0.7c-12.4,10.5-27.1,17.9-43.4,21.9c-3.4,0.9-7.1,1.5-10.8,2
		h-0.5c-1.9,0-3.6-1.4-4.1-3.4v-0.1c-0.5-2.3,1.1-3.6,2.6-5.2c5.9-6.4,12.7-11.8,17.2-26.9C86,174.7,73.6,158.4,73.6,140
		c0-31.9,37.9-57.9,84.6-57.9S242.8,107.9,242.8,139.8L242.8,139.8z M158.2,93.5c-39.3,0-72.5,21.2-72.5,46.3
		c0,13.5,9.4,26.3,25.8,35.2l8.2,4.5l-2.6,8.7c-1.8,6.4-4.2,11.4-6.6,15.6c9.5-3.8,18.2-9,26-15.5l4.1-3.4l5.4,0.5
		c4.1,0.5,8.2,0.7,12.3,0.7c39.3,0,72.5-21.2,72.5-46.3C230.7,114.7,197.5,93.5,158.2,93.5z M206.5,139.8c0,6.4-5.4,11.6-12.1,11.6
		c-6.7,0-12.1-5.2-12.1-11.6c0-6.4,5.4-11.6,12.1-11.6C201.2,128.3,206.5,133.4,206.5,139.8z M170.3,139.8c0,6.4-5.4,11.6-12.1,11.6
		s-12.1-5.2-12.1-11.6c0-6.4,5.4-11.6,12.1-11.6S170.3,133.4,170.3,139.8z M134,139.8c0,6.4-5.4,11.6-12.1,11.6
		c-6.7,0-12.1-5.2-12.1-11.6c0-6.4,5.4-11.6,12.1-11.6C128.6,128.3,134,133.4,134,139.8z"/>
</g>
<g id="codesign">
	<path d="M205.3,70.4c1.2,2.2,1.4,4.8,0.7,7l-4.9,16.4l-41-12.4l5-16.3c0.6-2.3,2.3-4.4,4.5-5.5c2.2-1.2,4.8-1.4,7.1-0.7l23.1,6.9
		C202.1,66.5,204.2,68.2,205.3,70.4z M158.2,87.7l41,12.4l-24.7,82l-36.3,46.2l-4.7-58.6L158.2,87.7z M168.3,98.2
		c-0.4-0.8-1.3-1.1-2.2-0.7c-0.4,0.2-0.7,0.5-0.9,1L149.1,152c-0.1,0.5-0.1,0.9,0.1,1.3c0.4,0.8,1.3,1.1,2.2,0.7
		c0.4-0.2,0.7-0.5,0.9-1l16.1-53.4C168.6,99,168.5,98.6,168.3,98.2z M169.4,166.7l-23.2-7l-2.7,9l-0.4,20.3l8.2-4.4l4.4,8.2
		l10.9-17.1L169.4,166.7z M270.4,151.3L226,194.9c-1.2,1.2-3.1,1.2-4.4,0l-4.8-4.7c-1.2-1.2-1.2-3.1,0-4.3l37.4-36.7l-37.4-36.7
		c-1.2-1.2-1.2-3.1,0-4.3l4.8-4.7c1.2-1.2,3.1-1.2,4.4,0l44.4,43.5C271.6,148.2,271.6,150.1,270.4,151.3L270.4,151.3z M111.4,190.2
		l-4.8,4.7c-1.2,1.2-3.1,1.2-4.4,0l-44.4-43.5c-1.2-1.2-1.2-3.1,0-4.3l44.4-43.5c1.2-1.2,3.1-1.2,4.4,0l4.8,4.7
		c1.2,1.2,1.2,3.1,0,4.3L74,149.2l37.4,36.7C112.6,187.1,112.6,189,111.4,190.2L111.4,190.2z"/>
</g>
<g id="code">
	<path d="M241,149.8l-46.3,45.9c-1.3,1.3-3.3,1.3-4.6,0l-5-4.9c-1.3-1.3-1.3-3.3,0-4.5l39.1-38.7l-39.1-38.7c-1.3-1.3-1.3-3.3,0-4.5
		l5-4.9c1.3-1.3,3.3-1.3,4.6,0l46.3,45.9C242.3,146.6,242.3,148.5,241,149.8L241,149.8z M175.7,85.7l-37.1,127.1
		c-0.5,1.7-2.3,2.7-3.9,2.2l-6.2-1.7c-1.7-0.5-2.7-2.3-2.2-3.9l37.1-127.1c0.5-1.7,2.3-2.7,3.9-2.2l6.2,1.7
		C175.2,82.3,176.2,84,175.7,85.7z M116.9,190.8l-5,4.9c-1.3,1.3-3.3,1.3-4.6,0L61,149.8c-1.3-1.3-1.3-3.3,0-4.5l46.3-45.9
		c1.3-1.3,3.3-1.3,4.6,0l5,4.9c1.3,1.3,1.3,3.3,0,4.5l-39.1,38.7l39.1,38.7C118.2,187.5,118.2,189.5,116.9,190.8L116.9,190.8z"/>
</g>
<path id="design" d="M241.3,78.7c0,2.5-1,4.9-2.7,6.6l-12.2,12.2l-30.6-30.6L208,54.8c1.7-1.8,4.1-2.8,6.6-2.8s4.9,1,6.7,2.8
	L238.5,72C240.2,73.7,241.3,76.2,241.3,78.7z M191.1,71.6l30.6,30.6l-61.1,61.1H130v-30.6L191.1,71.6z M195.1,85.7
	c0-1-0.7-1.6-1.6-1.6c-0.4,0-0.9,0.1-1.3,0.5l-39.8,39.8c-0.4,0.4-0.5,0.8-0.5,1.3c0,1,0.7,1.6,1.6,1.6c0.4,0,0.9-0.1,1.3-0.5
	L194.5,87C194.9,86.6,195.1,86.2,195.1,85.7z M156.6,153.9l6.7-6.7L146,129.9l-6.7,6.7v7.9h9.4v9.4L156.6,153.9L156.6,153.9z
	 M217.4,127.6H208v95H93.3V77.7h76.2v-9.4H83.9v163.6h133.5V127.6z"/>
<path id="plan" d="M168.8,39.6c1.4,0,2.5,1,3.6,2.1c17,16.9,33.9,33.9,50.9,50.8c16.7,16.7,33.4,33.4,50.2,50.1
	c1.3,1.3,2.4,2.7,1.9,4.7c-0.3,1.1-0.8,2.2-1.6,2.9c-11.2,11.3-22.5,22.6-33.8,33.9c-2.4,2.4-5,2.3-7.5-0.3
	c-8.1-8.1-16.3-16.3-24.4-24.4c-25.6-25.6-51.1-51.1-76.7-76.7c-1.4-1.4-2.5-2.9-1.9-4.9c0.3-1,0.9-2.1,1.6-2.8
	c11.2-11.3,22.5-22.5,33.7-33.8C165.8,40.3,167,39.6,168.8,39.6z M264.2,146.9c-32-32-64-64-95.7-95.8c-9.3,9.3-18.6,18.6-27.8,27.7
	c3.4,3.4,6.9,7,10.5,10.6c2.5-2.5,5.2-5.2,7.8-7.8c1.1-1.1,2.3-1.9,3.9-1.8c1.8,0.1,3.2,1,4,2.6c0.9,2,0.3,3.8-1.2,5.4
	c-2.4,2.4-4.9,4.9-7.3,7.3c-0.3,0.3-0.6,0.7-0.8,0.8c1.9,1.9,3.7,3.7,5.5,5.6c0.3-0.3,0.7-0.7,1.1-1c4.9-4.8,9.7-9.7,14.6-14.5
	c0.4-0.4,0.7-0.8,1.2-1.1c1.4-1.1,3-1.3,4.6-0.7c1.6,0.7,2.6,1.9,2.8,3.7c0.2,1.8-0.7,3.1-1.9,4.3c-4.9,4.9-9.8,9.8-14.8,14.7
	c-0.4,0.4-0.7,0.7-1,1.1c1.9,1.9,3.7,3.7,5.5,5.5c0.3-0.3,0.7-0.6,1.1-1c2.4-2.4,4.7-4.8,7.1-7.1c1.7-1.6,3.8-2.1,5.5-1.2
	c3,1.6,3.5,5,1,7.5c-2.3,2.4-4.7,4.7-7,7c-0.4,0.4-1.1,0.6-1.4,0.8c2.2,2.2,4,4,6,6c0.4-0.4,0.8-1,1.3-1.5c2.3-2.3,4.5-4.6,6.8-6.8
	c1.4-1.4,3.1-1.8,4.9-1.2c1.7,0.6,2.7,1.9,3,3.7c0.2,1.8-0.6,3.1-1.8,4.3c-2.7,2.7-5.4,5.3-7.8,7.8c1.9,1.9,3.7,3.8,5.8,5.8
	c0.2-0.3,0.5-0.8,0.9-1.2c4.8-4.8,9.6-9.6,14.4-14.5c0.4-0.4,0.9-0.9,1.4-1.3c1.9-1.4,4.7-1.1,6.2,0.8c1.6,2.1,1.4,4.3-0.8,6.5
	c-4.9,5-9.9,9.9-14.8,14.9c-0.4,0.4-0.7,0.8-0.9,1c1.9,1.9,3.7,3.7,5.6,5.6c2.6-2.6,5.2-5.3,7.9-7.9c0.9-0.9,2.2-1.5,3.5-1.7
	c1.7-0.3,3.6,0.9,4.3,2.5c0.8,2.1,0.3,3.9-1.2,5.4c-2.4,2.5-4.9,4.9-7.3,7.3c-0.3,0.3-0.6,0.7-0.8,0.9c1.9,1.9,3.7,3.7,5.5,5.5
	c0.3-0.3,0.7-0.6,1.1-1c2.6-2.5,5.1-5.1,7.7-7.6c1.5-1.4,3.7-1.5,5.4-0.4c1.6,1,2.4,2.9,1.8,4.8c-0.3,1-1,2-1.7,2.7
	c-2.6,2.7-5.3,5.3-7.8,7.8c2.3,2.3,4.5,4.6,6.7,6.7C245.6,165.4,255,156,264.2,146.9z M204.2,155.7v29.6H98.9v-71.5h63.5l-3.8-3.8
	H95.2v79H208v-29.6L204.2,155.7z M221.9,91.3h6v6l8.2,8.2V81.4H212L221.9,91.3z M227.9,179.4v28.5H73.3V91.3h66.6l-9.8-9.8l-65-0.1
	v136.4h171v-31.7l-2.2-0.7L227.9,179.4z"/>
<path id="chevron-right" d="M207.5,154.5l-73.7,73.7c-2.5,2.5-6.5,2.5-8.9,0l-16.4-16.5c-2.5-2.5-2.5-6.5,0-8.9l52.7-52.7
	l-52.7-52.8c-2.5-2.5-2.5-6.5,0-8.9L125,71.9c2.5-2.5,6.5-2.5,8.9,0l73.7,73.7C210,148,210,152,207.5,154.5z"/>
<path id="chevron-left" d="M191,97.3L138.3,150l52.7,52.7c2.5,2.5,2.5,6.5,0,8.9l-16.5,16.5c-2.5,2.5-6.5,2.5-8.9,0L92,154.5
	c-2.5-2.5-2.5-6.5,0-8.9l73.7-73.7c2.5-2.5,6.5-2.5,8.9,0L191,88.3C193.5,90.8,193.5,94.8,191,97.3z"/>
<path id="envelope" d="M232.8,204.4v-84c-2.3,2.6-4.8,5-7.5,7.2c-15.6,12-31.4,24.3-46.6,37c-8.2,6.9-18.4,15.3-29.8,15.3h-0.2
	c-11.4,0-21.6-8.4-29.8-15.3c-15.2-12.7-31-24.9-46.6-37c-2.7-2.2-5.3-4.6-7.5-7.2v84c0,1.9,1.6,3.5,3.5,3.5h161
	C231.1,207.9,232.8,206.2,232.8,204.4L232.8,204.4z M232.8,89.4c0-2.7,0.7-7.5-3.5-7.5h-161c-1.9,0-3.5,1.6-3.5,3.5
	c0,12.5,6.2,23.3,16.1,31.1c14.7,11.5,29.3,23.1,43.9,34.7c5.8,4.7,16.3,14.8,24,14.8h0.2c7.7,0,18.2-10.1,24-14.8
	c14.5-11.6,29.2-23.2,43.9-34.7C223.8,110.8,232.8,98.7,232.8,89.4L232.8,89.4z M246.8,85.3v119c0,9.6-7.9,17.5-17.5,17.5h-161
	c-9.6,0-17.5-7.9-17.5-17.5v-119c0-9.6,7.9-17.5,17.5-17.5h161C238.9,67.8,246.8,75.7,246.8,85.3z"/>
<path id="phone" d="M242.4,195.6c0,4.6-2,13.5-3.9,17.7c-2.7,6.2-9.8,10.3-15.5,13.5c-7.5,4.1-15.1,6.5-23.7,6.5
	c-11.8,0-22.5-4.8-33.3-8.8c-7.8-2.8-15.3-6.2-22.3-10.6c-21.6-13.4-47.7-39.4-61-61c-4.3-7-7.8-14.5-10.6-22.3
	c-3.9-10.8-8.8-21.5-8.8-33.3c0-8.5,2.4-16.1,6.5-23.7c3.2-5.7,7.3-12.8,13.5-15.5c4.2-1.9,13.1-3.9,17.7-3.9c0.9,0,1.8,0,2.7,0.4
	c2.7,0.9,5.5,7.1,6.7,9.7c4.1,7.3,8,14.6,12.2,21.7c2,3.3,5.9,7.4,5.9,11.3c0,7.8-23,19.1-23,25.9c0,3.4,3.2,7.9,5,10.9
	c12.8,23.1,28.9,39.2,52,52c3.1,1.8,7.5,5,10.9,5c6.9,0,18.2-23,25.9-23c3.9,0,8,3.8,11.3,5.9c7.1,4.2,14.5,8.1,21.7,12.2
	c2.5,1.3,8.8,4.1,9.7,6.7C242.4,193.8,242.4,194.7,242.4,195.6L242.4,195.6z"/>
<polygon id="close" points="227.7,222 171.9,166.2 227.7,110.3 207.7,90.3 151.8,146.1 96,90.3 75.9,110.3 131.8,166.2 75.9,222 
	96,242.1 151.8,186.2 207.7,242.1 "/>
<path id="logo-circle" d="M150,35.1c63.5,0,114.9,51.5,114.9,114.9S213.5,264.9,150,264.9S35.1,213.5,35.1,150S86.5,35.1,150,35.1z
	 M128,183.9h20.8l-12.6-29.4c7.6-4.5,8.8-13,8.8-18.1c0-6.4-2.7-13.1-6.4-16.7l-4,3.6c3.2,3,4.8,7.4,4.8,13.1
	c0,7.9-2.7,13.2-8.4,16.3l-1.1,0.6l10.9,25.6h-12.7 M116.7,156H96v23H84.7v5H101v-23h18.1 M101,131.6h19.7c1.3,0,3.9,0.9,3.9,5.8
	h4.7c0-8.9-4.8-10.8-8.7-10.8H96v20.1h5V131.6z M178,126.9h-24.6v5h24.7L178,126.9z M214.7,117.7v9.2h-24.4v52.3H178v5h17.4v-52.7
	h24.4v-13.7h-5.1V117.7z M150,30.2C83.9,30.2,30.2,83.9,30.2,150S83.9,269.8,150,269.8S269.8,216.2,269.8,150S216.1,30.2,150,30.2
	 M150,19c17.7,0,34.8,3.5,51,10.3c15.6,6.6,29.6,16,41.6,28.1c12,12,21.5,26,28.1,41.6c6.8,16.2,10.3,33.3,10.3,51
	s-3.5,34.8-10.3,51c-6.6,15.6-16,29.6-28.1,41.6c-12,12-26,21.5-41.6,28.1c-16.2,6.8-33.3,10.3-51,10.3s-34.8-3.5-51-10.3
	c-15.6-6.6-29.6-16-41.6-28.1c-12-12-21.5-26-28.1-41.6C22.5,184.8,19,167.7,19,150s3.5-34.8,10.3-51c6.6-15.6,16-29.6,28.1-41.6
	c12-12,26-21.5,41.6-28.1C115.2,22.5,132.3,19,150,19L150,19z"/>
<path id="logo" d="M128,183.9h20.8l-12.6-29.4c7.6-4.5,8.8-13,8.8-18.1c0-6.4-2.7-13.1-6.4-16.7l-4,3.6c3.2,3,4.8,7.4,4.8,13.1
	c0,7.9-2.7,13.2-8.4,16.3l-1.1,0.6l10.9,25.6h-12.7 M116.7,156H96v23H84.7v5H101v-23h18.1 M101,131.6h19.7c1.3,0,3.9,0.9,3.9,5.8
	h4.7c0-8.9-4.8-10.8-8.7-10.8H96v20.1h5V131.6z M178,126.9h-24.6v5h24.7L178,126.9z M214.7,117.7v9.2h-24.4v52.3H178v5h17.4v-52.7
	h24.4v-13.7h-5.1V117.7z"/>
</svg>
